<?xml version="1.0" encoding="utf-8"?>
<!-- Generator: Adobe Illustrator 19.0.0, SVG Export Plug-In . SVG Version: 6.00 Build 0)  -->
<svg version="1.1" id="_x32_000" xmlns="http://www.w3.org/2000/svg" xmlns:xlink="http://www.w3.org/1999/xlink" x="0px" y="0px"
	 viewBox="0 0 60 30" style="enable-background:new 0 0 60 30;" xml:space="preserve">
<style type="text/css">
	.st0{fill:none;stroke:#FFFFFF;stroke-miterlimit:10;}
</style>
<g id="XMLID_1_">
	<path id="XMLID_3_" class="st0" d="M3.16,23.27l5.89-11.1c0.3-0.55,0.47-1.04,0.51-1.46c0.04-0.42,0.06-0.93,0.06-1.55
		c0-0.28-0.01-0.57-0.03-0.88C9.57,7.97,9.51,7.7,9.41,7.46c-0.1-0.23-0.25-0.43-0.46-0.59C8.74,6.71,8.43,6.63,8.02,6.63
		c-0.49,0-0.88,0.14-1.17,0.42C6.57,7.32,6.42,7.73,6.42,8.26v1.86H3.16V8.33c0-0.68,0.13-1.32,0.38-1.92
		c0.26-0.6,0.6-1.12,1.04-1.57c0.44-0.45,0.95-0.81,1.55-1.07c0.6-0.27,1.24-0.4,1.92-0.4c0.85,0,1.58,0.16,2.19,0.46
		c0.61,0.31,1.11,0.73,1.5,1.26c0.39,0.53,0.68,1.14,0.86,1.82c0.18,0.68,0.27,1.41,0.27,2.18c0,0.56-0.01,1.02-0.03,1.39
		c-0.02,0.37-0.06,0.73-0.13,1.07c-0.06,0.34-0.17,0.68-0.32,1.02c-0.15,0.34-0.35,0.76-0.61,1.25L7,23.08h5.89v3.26H3.16V23.27z"/>
	<path id="XMLID_5_" class="st0" d="M17.69,8.26c0-0.77,0.13-1.45,0.4-2.05c0.27-0.6,0.62-1.11,1.07-1.54
		c0.45-0.43,0.96-0.75,1.55-0.98c0.59-0.22,1.2-0.34,1.84-0.34c0.64,0,1.25,0.11,1.84,0.34c0.59,0.22,1.1,0.55,1.55,0.98
		c0.45,0.43,0.8,0.94,1.07,1.54c0.27,0.6,0.4,1.28,0.4,2.05v13.38c0,0.77-0.13,1.45-0.4,2.05c-0.27,0.6-0.62,1.11-1.07,1.54
		c-0.45,0.43-0.97,0.75-1.55,0.98c-0.59,0.22-1.2,0.34-1.84,0.34c-0.64,0-1.25-0.11-1.84-0.34c-0.59-0.22-1.1-0.55-1.55-0.98
		c-0.45-0.43-0.81-0.94-1.07-1.54c-0.27-0.6-0.4-1.28-0.4-2.05V8.26z M20.95,21.64c0,0.47,0.15,0.86,0.45,1.17s0.68,0.46,1.15,0.46
		c0.47,0,0.85-0.15,1.15-0.46c0.3-0.31,0.45-0.7,0.45-1.17V8.26c0-0.47-0.15-0.86-0.45-1.17c-0.3-0.31-0.68-0.46-1.15-0.46
		c-0.47,0-0.85,0.15-1.15,0.46c-0.3,0.31-0.45,0.7-0.45,1.17V21.64z"/>
	<path id="XMLID_8_" class="st0" d="M32.25,8.26c0-0.77,0.13-1.45,0.4-2.05c0.27-0.6,0.62-1.11,1.07-1.54
		c0.45-0.43,0.96-0.75,1.55-0.98c0.59-0.22,1.2-0.34,1.84-0.34s1.25,0.11,1.84,0.34c0.59,0.22,1.1,0.55,1.55,0.98
		c0.45,0.43,0.81,0.94,1.07,1.54c0.27,0.6,0.4,1.28,0.4,2.05v13.38c0,0.77-0.13,1.45-0.4,2.05c-0.27,0.6-0.62,1.11-1.07,1.54
		c-0.45,0.43-0.96,0.75-1.55,0.98c-0.59,0.22-1.2,0.34-1.84,0.34s-1.25-0.11-1.84-0.34c-0.59-0.22-1.1-0.55-1.55-0.98
		c-0.45-0.43-0.81-0.94-1.07-1.54c-0.27-0.6-0.4-1.28-0.4-2.05V8.26z M35.51,21.64c0,0.47,0.15,0.86,0.45,1.17s0.68,0.46,1.15,0.46
		c0.47,0,0.85-0.15,1.15-0.46c0.3-0.31,0.45-0.7,0.45-1.17V8.26c0-0.47-0.15-0.86-0.45-1.17c-0.3-0.31-0.68-0.46-1.15-0.46
		c-0.47,0-0.85,0.15-1.15,0.46c-0.3,0.31-0.45,0.7-0.45,1.17V21.64z"/>
	<path id="XMLID_11_" class="st0" d="M46.8,8.26c0-0.77,0.13-1.45,0.4-2.05c0.27-0.6,0.62-1.11,1.07-1.54
		c0.45-0.43,0.97-0.75,1.55-0.98c0.59-0.22,1.2-0.34,1.84-0.34c0.64,0,1.25,0.11,1.84,0.34c0.59,0.22,1.1,0.55,1.55,0.98
		c0.45,0.43,0.81,0.94,1.07,1.54c0.27,0.6,0.4,1.28,0.4,2.05v13.38c0,0.77-0.13,1.45-0.4,2.05c-0.27,0.6-0.62,1.11-1.07,1.54
		c-0.45,0.43-0.96,0.75-1.55,0.98c-0.59,0.22-1.2,0.34-1.84,0.34c-0.64,0-1.25-0.11-1.84-0.34c-0.59-0.22-1.1-0.55-1.55-0.98
		c-0.45-0.43-0.8-0.94-1.07-1.54c-0.27-0.6-0.4-1.28-0.4-2.05V8.26z M50.07,21.64c0,0.47,0.15,0.86,0.45,1.17s0.68,0.46,1.15,0.46
		c0.47,0,0.85-0.15,1.15-0.46s0.45-0.7,0.45-1.17V8.26c0-0.47-0.15-0.86-0.45-1.17c-0.3-0.31-0.68-0.46-1.15-0.46
		c-0.47,0-0.85,0.15-1.15,0.46c-0.3,0.31-0.45,0.7-0.45,1.17V21.64z"/>
</g>
</svg>
