<?xml version="1.0" encoding="utf-8"?>
<!-- Generator: Adobe Illustrator 19.0.0, SVG Export Plug-In . SVG Version: 6.00 Build 0)  -->
<svg version="1.1" id="_x31_975" xmlns="http://www.w3.org/2000/svg" xmlns:xlink="http://www.w3.org/1999/xlink" x="0px" y="0px"
	 viewBox="0 0 60 30" style="enable-background:new 0 0 60 30;" xml:space="preserve">
<style type="text/css">
	.st0{fill:none;stroke:#FFFFFF;stroke-miterlimit:10;}
</style>
<g id="XMLID_1_">
	<path id="XMLID_3_" class="st0" d="M7.04,7.01l-3.26,2.4V5.96l3.26-2.4h3.26v22.78H7.04V7.01z"/>
	<path id="XMLID_5_" class="st0" d="M21.25,16.77l-0.06-0.06c-0.11,0.08-0.27,0.15-0.5,0.21C20.47,16.97,20.18,17,19.81,17
		c-0.58,0-1.11-0.14-1.6-0.42s-0.88-0.63-1.15-1.06c-0.15-0.21-0.27-0.44-0.35-0.69c-0.09-0.25-0.15-0.56-0.21-0.94
		c-0.05-0.38-0.09-0.87-0.11-1.46c-0.02-0.59-0.03-1.33-0.03-2.22c0-0.75,0.01-1.36,0.03-1.84c0.02-0.48,0.06-0.89,0.11-1.22
		c0.05-0.33,0.13-0.61,0.22-0.85c0.1-0.23,0.22-0.48,0.37-0.74c0.43-0.7,1-1.25,1.71-1.63c0.71-0.38,1.52-0.58,2.42-0.58
		s1.7,0.2,2.4,0.59c0.7,0.4,1.27,0.93,1.7,1.62c0.15,0.26,0.28,0.5,0.38,0.74c0.11,0.24,0.19,0.52,0.24,0.85
		c0.05,0.33,0.09,0.74,0.11,1.22c0.02,0.48,0.03,1.09,0.03,1.84c0,0.7-0.01,1.29-0.03,1.74c-0.02,0.46-0.06,0.85-0.11,1.18
		c-0.05,0.33-0.12,0.63-0.19,0.9c-0.08,0.27-0.17,0.55-0.27,0.85l-4.29,11.46h-3.65L21.25,16.77z M19.62,12.49
		c0,0.49,0.16,0.89,0.48,1.18s0.69,0.45,1.12,0.45c0.43,0,0.8-0.15,1.12-0.45c0.32-0.3,0.48-0.69,0.48-1.18V8.26
		c0-0.49-0.16-0.88-0.48-1.18c-0.32-0.3-0.69-0.45-1.12-0.45c-0.43,0-0.8,0.15-1.12,0.45c-0.32,0.3-0.48,0.69-0.48,1.18V12.49z"/>
	<path id="XMLID_8_" class="st0" d="M37.48,6.63h-3.58v2.62h-2.88v-5.7h9.73v3.26l-5.54,19.52h-3.46L37.48,6.63z"/>
	<path id="XMLID_10_" class="st0" d="M55.27,6.63H48.8v6.14c0.3-0.3,0.68-0.55,1.15-0.75c0.47-0.2,0.99-0.3,1.57-0.3
		c1.11,0,2.01,0.34,2.7,1.02c0.69,0.68,1.04,1.69,1.04,3.01v5.89c0,0.77-0.13,1.45-0.4,2.05c-0.27,0.6-0.62,1.11-1.07,1.54
		c-0.45,0.43-0.96,0.75-1.55,0.98c-0.59,0.22-1.2,0.34-1.84,0.34c-0.64,0-1.25-0.11-1.84-0.34c-0.59-0.22-1.1-0.55-1.55-0.98
		c-0.45-0.43-0.8-0.94-1.07-1.54c-0.27-0.6-0.4-1.28-0.4-2.05v-0.96h3.26v0.83c0,0.55,0.16,0.99,0.46,1.3
		c0.31,0.31,0.71,0.46,1.2,0.46c0.49,0,0.87-0.15,1.14-0.45c0.27-0.3,0.4-0.71,0.4-1.25v-5.34c0-0.45-0.14-0.83-0.43-1.15
		c-0.29-0.32-0.66-0.48-1.1-0.48c-0.28,0-0.51,0.05-0.7,0.14c-0.19,0.1-0.35,0.21-0.48,0.34s-0.23,0.27-0.3,0.42
		c-0.08,0.15-0.13,0.27-0.18,0.35h-2.88V3.56h9.34V6.63z"/>
</g>
</svg>
