<?xml version="1.0" encoding="utf-8"?>
<!-- Generator: Adobe Illustrator 19.0.0, SVG Export Plug-In . SVG Version: 6.00 Build 0)  -->
<svg version="1.1" id="_x31_986" xmlns="http://www.w3.org/2000/svg" xmlns:xlink="http://www.w3.org/1999/xlink" x="0px" y="0px"
	 viewBox="0 0 60 30" style="enable-background:new 0 0 60 30;" xml:space="preserve">
<style type="text/css">
	.st0{fill:none;stroke:#FFFFFF;stroke-miterlimit:10;}
</style>
<g id="XMLID_1_">
	<path id="XMLID_3_" class="st0" d="M7.16,7.01l-3.26,2.4V5.96l3.26-2.4h3.26v22.78H7.16V7.01z"/>
	<path id="XMLID_5_" class="st0" d="M21.37,16.77l-0.06-0.06c-0.11,0.08-0.27,0.15-0.5,0.21C20.58,16.97,20.29,17,19.93,17
		c-0.58,0-1.11-0.14-1.6-0.42s-0.88-0.63-1.15-1.06c-0.15-0.21-0.27-0.44-0.35-0.69c-0.09-0.25-0.15-0.56-0.21-0.94
		c-0.05-0.38-0.09-0.87-0.11-1.46c-0.02-0.59-0.03-1.33-0.03-2.22c0-0.75,0.01-1.36,0.03-1.84c0.02-0.48,0.06-0.89,0.11-1.22
		c0.05-0.33,0.13-0.61,0.22-0.85c0.1-0.23,0.22-0.48,0.37-0.74c0.43-0.7,1-1.25,1.71-1.63c0.71-0.38,1.52-0.58,2.42-0.58
		s1.7,0.2,2.4,0.59c0.7,0.4,1.27,0.93,1.7,1.62c0.15,0.26,0.28,0.5,0.38,0.74c0.11,0.24,0.19,0.52,0.24,0.85
		c0.05,0.33,0.09,0.74,0.11,1.22c0.02,0.48,0.03,1.09,0.03,1.84c0,0.7-0.01,1.29-0.03,1.74c-0.02,0.46-0.06,0.85-0.11,1.18
		c-0.05,0.33-0.12,0.63-0.19,0.9c-0.08,0.27-0.17,0.55-0.27,0.85L21.3,26.34h-3.65L21.37,16.77z M19.73,12.49
		c0,0.49,0.16,0.89,0.48,1.18s0.69,0.45,1.12,0.45c0.43,0,0.8-0.15,1.12-0.45c0.32-0.3,0.48-0.69,0.48-1.18V8.26
		c0-0.49-0.16-0.88-0.48-1.18c-0.32-0.3-0.69-0.45-1.12-0.45c-0.43,0-0.8,0.15-1.12,0.45c-0.32,0.3-0.48,0.69-0.48,1.18V12.49z"/>
	<path id="XMLID_8_" class="st0" d="M31.13,9.51c0-0.62,0.02-1.15,0.06-1.58c0.04-0.44,0.11-0.82,0.21-1.14
		c0.1-0.32,0.22-0.61,0.37-0.86c0.15-0.26,0.33-0.52,0.54-0.8c0.43-0.55,0.96-0.99,1.6-1.3c0.64-0.31,1.33-0.46,2.08-0.46
		s1.44,0.16,2.08,0.46c0.64,0.31,1.17,0.74,1.6,1.3c0.21,0.28,0.39,0.54,0.54,0.8c0.15,0.26,0.27,0.54,0.37,0.86
		c0.1,0.32,0.17,0.7,0.21,1.14c0.04,0.44,0.06,0.97,0.06,1.58c0,0.68-0.01,1.26-0.03,1.73c-0.02,0.47-0.09,0.89-0.19,1.25
		c-0.11,0.36-0.27,0.69-0.5,0.98s-0.53,0.59-0.91,0.91c0.38,0.3,0.69,0.6,0.91,0.9s0.39,0.65,0.5,1.06c0.11,0.41,0.17,0.9,0.19,1.49
		c0.02,0.59,0.03,1.31,0.03,2.16c0,0.7-0.02,1.29-0.05,1.74s-0.08,0.86-0.14,1.2c-0.06,0.34-0.15,0.63-0.27,0.86
		c-0.12,0.24-0.26,0.48-0.43,0.74c-0.36,0.55-0.88,1.03-1.54,1.42c-0.66,0.4-1.47,0.59-2.43,0.59s-1.77-0.2-2.43-0.59
		c-0.66-0.39-1.17-0.87-1.54-1.42c-0.17-0.26-0.32-0.5-0.43-0.74c-0.12-0.23-0.21-0.52-0.27-0.86c-0.06-0.34-0.11-0.74-0.14-1.2
		c-0.03-0.46-0.05-1.04-0.05-1.74c0-0.85,0.01-1.57,0.03-2.16c0.02-0.59,0.08-1.08,0.19-1.49c0.11-0.4,0.27-0.76,0.5-1.06
		c0.22-0.3,0.53-0.6,0.91-0.9c-0.38-0.32-0.69-0.62-0.91-0.91c-0.22-0.29-0.39-0.61-0.5-0.98c-0.11-0.36-0.17-0.78-0.19-1.25
		C31.14,10.77,31.13,10.19,31.13,9.51z M37.59,8.23c0-0.45-0.16-0.83-0.48-1.14c-0.32-0.31-0.69-0.46-1.12-0.46s-0.8,0.15-1.12,0.46
		c-0.32,0.31-0.48,0.69-0.48,1.14v3.33c0,0.45,0.16,0.83,0.48,1.14c0.32,0.31,0.69,0.46,1.12,0.46s0.8-0.15,1.12-0.46
		c0.32-0.31,0.48-0.69,0.48-1.14V8.23z M37.59,17.19c0-0.45-0.16-0.83-0.48-1.14c-0.32-0.31-0.69-0.46-1.12-0.46
		s-0.8,0.15-1.12,0.46c-0.32,0.31-0.48,0.69-0.48,1.14v4.48c0,0.45,0.16,0.83,0.48,1.14c0.32,0.31,0.69,0.46,1.12,0.46
		s0.8-0.15,1.12-0.46s0.48-0.69,0.48-1.14V17.19z"/>
	<path id="XMLID_12_" class="st0" d="M50.49,13.13l0.06,0.06c0.11-0.08,0.27-0.15,0.5-0.21c0.22-0.05,0.52-0.08,0.88-0.08
		c0.58,0,1.11,0.14,1.6,0.42c0.49,0.28,0.88,0.63,1.15,1.06c0.15,0.23,0.27,0.47,0.35,0.7c0.08,0.24,0.15,0.54,0.21,0.93
		c0.05,0.38,0.09,0.87,0.11,1.46c0.02,0.59,0.03,1.33,0.03,2.22c0,0.75-0.01,1.36-0.03,1.84c-0.02,0.48-0.06,0.89-0.11,1.22
		c-0.05,0.33-0.13,0.61-0.22,0.85c-0.1,0.23-0.22,0.48-0.37,0.74c-0.43,0.7-1,1.25-1.71,1.63c-0.71,0.38-1.52,0.58-2.42,0.58
		c-0.9,0-1.7-0.2-2.4-0.59c-0.7-0.39-1.27-0.93-1.7-1.62c-0.17-0.26-0.3-0.5-0.4-0.74s-0.17-0.52-0.22-0.85
		c-0.05-0.33-0.09-0.74-0.11-1.22c-0.02-0.48-0.03-1.09-0.03-1.84c0-0.7,0.01-1.29,0.03-1.74c0.02-0.46,0.05-0.85,0.1-1.18
		s0.11-0.63,0.19-0.9c0.08-0.27,0.18-0.55,0.29-0.85l4.29-11.46h3.65L50.49,13.13z M52.12,17.41c0-0.49-0.16-0.88-0.48-1.18
		c-0.32-0.3-0.69-0.45-1.12-0.45s-0.8,0.15-1.12,0.45c-0.32,0.3-0.48,0.69-0.48,1.18v4.22c0,0.49,0.16,0.89,0.48,1.18
		c0.32,0.3,0.69,0.45,1.12,0.45s0.8-0.15,1.12-0.45c0.32-0.3,0.48-0.69,0.48-1.18V17.41z"/>
</g>
</svg>
