<?xml version="1.0" encoding="utf-8"?>
<!-- Generator: Adobe Illustrator 19.0.0, SVG Export Plug-In . SVG Version: 6.00 Build 0)  -->
<svg version="1.1" id="_x31_980s" xmlns="http://www.w3.org/2000/svg" xmlns:xlink="http://www.w3.org/1999/xlink" x="0px" y="0px"
	 viewBox="0 0 80 30" style="enable-background:new 0 0 80 30;" xml:space="preserve">
<style type="text/css">
	.st0{fill:none;stroke:#FFFFFF;stroke-miterlimit:10;}
</style>
<g id="XMLID_1_">
	<path id="XMLID_3_" class="st0" d="M10.21,7.01l-3.26,2.4V5.96l3.26-2.4h3.26v22.78h-3.26V7.01z"/>
	<path id="XMLID_5_" class="st0" d="M24.42,16.77l-0.06-0.06c-0.11,0.08-0.27,0.15-0.5,0.21C23.63,16.97,23.34,17,22.98,17
		c-0.58,0-1.11-0.14-1.6-0.42s-0.88-0.63-1.15-1.06c-0.15-0.21-0.27-0.44-0.35-0.69c-0.09-0.25-0.15-0.56-0.21-0.94
		c-0.05-0.38-0.09-0.87-0.11-1.46c-0.02-0.59-0.03-1.33-0.03-2.22c0-0.75,0.01-1.36,0.03-1.84c0.02-0.48,0.06-0.89,0.11-1.22
		c0.05-0.33,0.13-0.61,0.22-0.85c0.1-0.23,0.22-0.48,0.37-0.74c0.43-0.7,1-1.25,1.71-1.63c0.71-0.38,1.52-0.58,2.42-0.58
		s1.7,0.2,2.4,0.59c0.7,0.4,1.27,0.93,1.7,1.62c0.15,0.26,0.28,0.5,0.38,0.74c0.11,0.24,0.19,0.52,0.24,0.85
		c0.05,0.33,0.09,0.74,0.11,1.22c0.02,0.48,0.03,1.09,0.03,1.84c0,0.7-0.01,1.29-0.03,1.74c-0.02,0.46-0.06,0.85-0.11,1.18
		c-0.05,0.33-0.12,0.63-0.19,0.9c-0.08,0.27-0.17,0.55-0.27,0.85l-4.29,11.46H20.7L24.42,16.77z M22.78,12.49
		c0,0.49,0.16,0.89,0.48,1.18s0.69,0.45,1.12,0.45c0.43,0,0.8-0.15,1.12-0.45c0.32-0.3,0.48-0.69,0.48-1.18V8.26
		c0-0.49-0.16-0.88-0.48-1.18c-0.32-0.3-0.69-0.45-1.12-0.45c-0.43,0-0.8,0.15-1.12,0.45c-0.32,0.3-0.48,0.69-0.48,1.18V12.49z"/>
	<path id="XMLID_8_" class="st0" d="M32.9,9.51c0-0.62,0.02-1.15,0.06-1.58c0.04-0.44,0.11-0.82,0.21-1.14
		c0.1-0.32,0.22-0.61,0.37-0.86c0.15-0.26,0.33-0.52,0.54-0.8c0.43-0.55,0.96-0.99,1.6-1.3c0.64-0.31,1.33-0.46,2.08-0.46
		c0.75,0,1.44,0.16,2.08,0.46c0.64,0.31,1.17,0.74,1.6,1.3c0.21,0.28,0.39,0.54,0.54,0.8s0.27,0.54,0.37,0.86
		c0.1,0.32,0.17,0.7,0.21,1.14c0.04,0.44,0.06,0.97,0.06,1.58c0,0.68-0.01,1.26-0.03,1.73c-0.02,0.47-0.08,0.89-0.19,1.25
		c-0.11,0.36-0.27,0.69-0.5,0.98c-0.22,0.29-0.53,0.59-0.91,0.91c0.38,0.3,0.69,0.6,0.91,0.9c0.22,0.3,0.39,0.65,0.5,1.06
		c0.11,0.41,0.17,0.9,0.19,1.49c0.02,0.59,0.03,1.31,0.03,2.16c0,0.7-0.02,1.29-0.05,1.74c-0.03,0.46-0.08,0.86-0.14,1.2
		c-0.06,0.34-0.15,0.63-0.27,0.86c-0.12,0.24-0.26,0.48-0.43,0.74c-0.36,0.55-0.88,1.03-1.54,1.42c-0.66,0.4-1.47,0.59-2.43,0.59
		s-1.77-0.2-2.43-0.59c-0.66-0.39-1.17-0.87-1.54-1.42c-0.17-0.26-0.31-0.5-0.43-0.74c-0.12-0.23-0.21-0.52-0.27-0.86
		c-0.06-0.34-0.11-0.74-0.14-1.2c-0.03-0.46-0.05-1.04-0.05-1.74c0-0.85,0.01-1.57,0.03-2.16c0.02-0.59,0.08-1.08,0.19-1.49
		c0.11-0.4,0.27-0.76,0.5-1.06s0.53-0.6,0.91-0.9c-0.38-0.32-0.69-0.62-0.91-0.91s-0.39-0.61-0.5-0.98
		c-0.11-0.36-0.17-0.78-0.19-1.25C32.91,10.77,32.9,10.19,32.9,9.51z M39.36,8.23c0-0.45-0.16-0.83-0.48-1.14
		c-0.32-0.31-0.69-0.46-1.12-0.46c-0.43,0-0.8,0.15-1.12,0.46c-0.32,0.31-0.48,0.69-0.48,1.14v3.33c0,0.45,0.16,0.83,0.48,1.14
		c0.32,0.31,0.69,0.46,1.12,0.46c0.43,0,0.8-0.15,1.12-0.46c0.32-0.31,0.48-0.69,0.48-1.14V8.23z M39.36,17.19
		c0-0.45-0.16-0.83-0.48-1.14c-0.32-0.31-0.69-0.46-1.12-0.46c-0.43,0-0.8,0.15-1.12,0.46c-0.32,0.31-0.48,0.69-0.48,1.14v4.48
		c0,0.45,0.16,0.83,0.48,1.14s0.69,0.46,1.12,0.46c0.43,0,0.8-0.15,1.12-0.46c0.32-0.31,0.48-0.69,0.48-1.14V17.19z"/>
	<path id="XMLID_12_" class="st0" d="M46.78,8.26c0-0.77,0.13-1.45,0.4-2.05c0.27-0.6,0.62-1.11,1.07-1.54
		c0.45-0.43,0.96-0.75,1.55-0.98c0.59-0.22,1.2-0.34,1.84-0.34c0.64,0,1.25,0.11,1.84,0.34c0.59,0.22,1.1,0.55,1.55,0.98
		c0.45,0.43,0.81,0.94,1.07,1.54c0.27,0.6,0.4,1.28,0.4,2.05v13.38c0,0.77-0.13,1.45-0.4,2.05c-0.27,0.6-0.62,1.11-1.07,1.54
		c-0.45,0.43-0.96,0.75-1.55,0.98c-0.59,0.22-1.2,0.34-1.84,0.34c-0.64,0-1.25-0.11-1.84-0.34c-0.59-0.22-1.11-0.55-1.55-0.98
		c-0.45-0.43-0.81-0.94-1.07-1.54c-0.27-0.6-0.4-1.28-0.4-2.05V8.26z M50.05,21.64c0,0.47,0.15,0.86,0.45,1.17s0.68,0.46,1.15,0.46
		c0.47,0,0.85-0.15,1.15-0.46s0.45-0.7,0.45-1.17V8.26c0-0.47-0.15-0.86-0.45-1.17c-0.3-0.31-0.68-0.46-1.15-0.46
		c-0.47,0-0.85,0.15-1.15,0.46c-0.3,0.31-0.45,0.7-0.45,1.17V21.64z"/>
	<path id="XMLID_15_" class="st0" d="M59.52,3.56h3.26v3.26l-3.26,2.37V3.56z"/>
	<path id="XMLID_17_" class="st0" d="M69.79,14.66c-0.02-0.55-0.2-0.97-0.53-1.25C68.93,13.14,68.55,13,68.13,13
		c-0.51,0-0.91,0.17-1.18,0.5c-0.28,0.33-0.42,0.71-0.42,1.14c0,0.3,0.07,0.59,0.22,0.88s0.53,0.55,1.15,0.78l1.92,0.77
		c1.22,0.47,2.05,1.11,2.51,1.92c0.46,0.81,0.69,1.7,0.69,2.66c0,0.68-0.12,1.32-0.37,1.9s-0.58,1.1-1.01,1.55s-0.94,0.8-1.54,1.06
		c-0.6,0.26-1.25,0.38-1.95,0.38c-0.64,0-1.25-0.11-1.82-0.32c-0.58-0.21-1.08-0.52-1.52-0.93c-0.44-0.4-0.79-0.91-1.07-1.52
		c-0.28-0.61-0.43-1.32-0.45-2.13h3.07c0.06,0.45,0.22,0.86,0.46,1.25s0.68,0.58,1.3,0.58c0.47,0,0.89-0.16,1.26-0.46
		c0.37-0.31,0.56-0.74,0.56-1.3c0-0.45-0.12-0.83-0.35-1.15c-0.24-0.32-0.66-0.6-1.28-0.83l-1.57-0.58
		c-1.02-0.38-1.83-0.95-2.42-1.71c-0.59-0.76-0.88-1.68-0.88-2.77c0-0.68,0.13-1.32,0.38-1.9c0.26-0.59,0.6-1.09,1.04-1.5
		s0.94-0.74,1.52-0.98c0.58-0.23,1.19-0.35,1.86-0.35s1.28,0.12,1.84,0.37c0.56,0.25,1.05,0.58,1.46,0.99
		c0.4,0.42,0.72,0.92,0.96,1.5c0.23,0.59,0.35,1.21,0.35,1.87H69.79z"/>
</g>
</svg>
