<?xml version="1.0" encoding="utf-8"?>
<!-- Generator: Adobe Illustrator 19.0.0, SVG Export Plug-In . SVG Version: 6.00 Build 0)  -->
<svg version="1.1" id="gen" xmlns="http://www.w3.org/2000/svg" xmlns:xlink="http://www.w3.org/1999/xlink" x="0px" y="0px"
	 viewBox="0 0 34 16" style="enable-background:new 0 0 34 16;" xml:space="preserve">
<style type="text/css">
	.st0{fill:#989898;}
	.st1{fill:#666666;}
	.st2{fill:#444444;}
</style>
<g id="XMLID_69_">
	<g id="XMLID_40_">
		<polygon id="XMLID_209_" class="st0" points="3,4 0,4 0,5 2,5 2,15 0,15 0,16 3,16 		"/>
		<polygon id="XMLID_222_" class="st1" points="5,2 2,2 2,3 4,3 4,12 3,12 3,13 5,13 		"/>
		<polygon id="XMLID_199_" class="st2" points="7,0 4,0 4,1.02 6,1.02 6,8.96 5,8.96 5,10 7,10 		"/>
	</g>
	<g id="XMLID_49_">
		<polygon id="XMLID_68_" class="st0" points="31,16 34,16 34,15 32,15 32,5 34,5 34,4 31,4 		"/>
		<polygon id="XMLID_66_" class="st1" points="29,13 31,13 31,12 30,12 30,3 32,3 32,2 29,2 		"/>
		<polygon id="XMLID_54_" class="st2" points="27,10 29,10 29,8.98 28,8.98 28,1.04 30,1.04 30,0 27,0 		"/>
	</g>
	<g id="XMLID_51_">
		<polygon id="XMLID_74_" class="st2" points="10,1 24,1 24,2 25,2 25,0 9,0 9,2 10,2 		"/>
		<polygon id="XMLID_71_" class="st1" points="9,3 25,3 25,4 26,4 26,2 8,2 8,4 9,4 		"/>
		<path id="XMLID_100_" class="st0" d="M26,5v10H8V5H26 M27,4H7v12h20V4L27,4z"/>
	</g>
</g>
</svg>
