<?xml version="1.0" encoding="utf-8"?>
<!-- Generator: Adobe Illustrator 16.0.0, SVG Export Plug-In . SVG Version: 6.00 Build 0)  -->
<!DOCTYPE svg PUBLIC "-//W3C//DTD SVG 1.1//EN" "http://www.w3.org/Graphics/SVG/1.1/DTD/svg11.dtd">
<svg version="1.1" id="logo" xmlns="http://www.w3.org/2000/svg" xmlns:xlink="http://www.w3.org/1999/xlink" x="0px" y="0px"
	 width="1157.509px" height="188.922px" viewBox="22.048 326.429 1157.509 188.922"
	 enable-background="new 22.048 326.429 1157.509 188.922" xml:space="preserve">
<g>
	<g>
		<g>
			<g>
				<path fill="#FFFFFF" d="M44.646,406.67l-8.931-17.418h-9.479v17.418h-4.189v-39.3h15.048c6.835,0,11.63,4.134,11.63,10.914
					c0,5.73-3.473,9.479-8.543,10.526l9.314,17.858L44.646,406.67L44.646,406.67z M36.708,371.118H26.237v14.386h10.472
					c4.575,0,7.827-2.37,7.827-7.165C44.59,373.544,41.338,371.118,36.708,371.118z"/>
				<path fill="#FFFFFF" d="M62.78,394.158c0,5.952,2.811,9.369,7.992,9.369c3.142,0,4.96-0.938,7.109-3.086l2.7,2.369
					c-2.756,2.757-5.291,4.188-9.921,4.188c-7.165,0-11.851-4.299-11.851-13.89c0-8.765,4.244-13.891,11.134-13.891
					c7,0,11.134,5.071,11.134,13.118v1.819H62.78V394.158z M76.338,386.662c-1.047-2.48-3.472-4.079-6.338-4.079
					s-5.292,1.599-6.339,4.079c-0.605,1.487-0.717,2.313-0.827,4.52h14.331C77.055,388.977,76.945,388.149,76.338,386.662z"/>
				<path fill="#FFFFFF" d="M108.582,406.67v-3.252c-2.204,2.865-4.74,3.582-7.716,3.582c-2.756,0-5.182-0.938-6.614-2.37
					c-2.756-2.756-3.308-7.274-3.308-11.52s0.552-8.765,3.308-11.521c1.434-1.433,3.858-2.37,6.614-2.37
					c2.976,0,5.456,0.661,7.661,3.474V367.37h3.969v39.3H108.582L108.582,406.67z M101.693,382.748
					c-5.897,0-6.835,5.071-6.835,10.362s0.938,10.361,6.835,10.361c5.896,0,6.779-5.07,6.779-10.361
					C108.528,387.819,107.646,382.748,101.693,382.748z"/>
				<path fill="#FFFFFF" d="M124.952,371.779v-4.464h4.465v4.464H124.952z M125.173,406.67v-27.174h3.97v27.174H125.173z"/>
				<path fill="#FFFFFF" d="M150.472,407c-4.574,0-8.157-1.047-11.135-3.913l2.646-2.646c2.149,2.26,5.071,3.142,8.434,3.142
					c4.465,0,7.222-1.599,7.222-4.795c0-2.37-1.378-3.693-4.521-3.969l-4.464-0.387c-5.292-0.44-8.104-2.812-8.104-7.274
					c0-4.961,4.188-7.938,9.978-7.938c3.858,0,7.33,0.938,9.756,2.921l-2.591,2.592c-1.929-1.488-4.409-2.149-7.221-2.149
					c-3.969,0-6.062,1.709-6.062,4.465c0,2.314,1.322,3.692,4.74,3.968l4.354,0.387c4.74,0.44,7.992,2.261,7.992,7.331
					C161.495,403.969,157.031,407,150.472,407z"/>
				<path fill="#FFFFFF" d="M182.606,407c-6.834,0-12.017-4.63-12.017-13.89c0-9.261,5.183-13.891,12.017-13.891
					c3.748,0,6.118,0.992,8.93,4.023l-2.701,2.535c-2.039-2.261-3.638-3.031-6.229-3.031c-2.646,0-4.851,1.048-6.283,3.087
					c-1.268,1.764-1.764,3.858-1.764,7.275s0.496,5.512,1.764,7.274c1.434,2.04,3.638,3.087,6.283,3.087
					c2.591,0,4.188-0.827,6.229-3.087l2.701,2.591C188.724,406.008,186.354,407,182.606,407z"/>
				<path fill="#FFFFFF" d="M216.008,403.914c-1.874,1.874-4.465,3.086-7.771,3.086s-5.897-1.212-7.771-3.086
					c-2.756-2.812-3.307-6.614-3.307-10.804c0-4.188,0.551-7.992,3.307-10.804c1.874-1.874,4.466-3.087,7.771-3.087
					c3.308,0,5.897,1.213,7.771,3.087c2.757,2.812,3.308,6.614,3.308,10.804S218.764,401.103,216.008,403.914z M213.197,384.732
					c-1.268-1.269-3.031-1.984-4.961-1.984c-1.929,0-3.638,0.717-4.905,1.984c-1.983,1.983-2.205,5.347-2.205,8.378
					c0,3.03,0.222,6.394,2.205,8.378c1.269,1.268,2.978,1.983,4.905,1.983c1.93,0,3.693-0.717,4.961-1.983
					c1.984-1.984,2.149-5.348,2.149-8.378C215.346,390.079,215.181,386.717,213.197,384.732z"/>
				<path fill="#FFFFFF" d="M239.157,406.67h-3.528l-9.921-27.174h4.3l7.387,21.827l7.439-21.827h4.299L239.157,406.67z"/>
				<path fill="#FFFFFF" d="M259.386,394.158c0,5.952,2.811,9.369,7.99,9.369c3.144,0,4.961-0.938,7.11-3.086l2.701,2.369
					c-2.756,2.757-5.291,4.188-9.921,4.188c-7.166,0-11.852-4.299-11.852-13.89c0-8.765,4.244-13.891,11.134-13.891
					c7,0,11.135,5.071,11.135,13.118v1.819h-18.298V394.158z M272.945,386.662c-1.047-2.48-3.473-4.079-6.339-4.079
					s-5.291,1.599-6.338,4.079c-0.606,1.487-0.718,2.313-0.827,4.52h14.331C273.661,388.977,273.551,388.149,272.945,386.662z"/>
				<path fill="#FFFFFF" d="M304.142,384.732c-1.488-1.488-2.592-1.984-4.687-1.984c-3.969,0-6.504,3.142-6.504,7.275v16.646h-3.969
					v-27.174h3.969v3.308c1.488-2.26,4.465-3.638,7.606-3.638c2.591,0,4.573,0.604,6.504,2.535L304.142,384.732z"/>
				<path fill="#FFFFFF" d="M361.685,406.67v-29.874l-10.748,23.7h-3.583l-10.913-23.7v29.874h-4.189v-39.3h4.189l12.787,27.89
					l12.457-27.89h4.188v39.3H361.685L361.685,406.67z"/>
				<path fill="#FFFFFF" d="M396.464,406.67v-3.032c-1.929,2.205-4.63,3.362-7.66,3.362c-2.923,0-5.348-0.882-7-2.535
					c-1.931-1.874-2.757-4.465-2.757-7.605v-17.308h3.969v16.7c0,4.796,2.535,7.221,6.613,7.221c4.079,0,6.78-2.479,6.78-7.221
					v-16.7h3.969v27.173h-3.914V406.67z"/>
				<path fill="#FFFFFF" d="M421.653,407c-4.574,0-8.157-1.047-11.134-3.913l2.646-2.646c2.15,2.26,5.071,3.142,8.435,3.142
					c4.465,0,7.221-1.599,7.221-4.795c0-2.37-1.379-3.693-4.521-3.969l-4.464-0.387c-5.292-0.44-8.104-2.812-8.104-7.274
					c0-4.961,4.188-7.938,9.978-7.938c3.857,0,7.329,0.938,9.756,2.921l-2.592,2.592c-1.93-1.488-4.408-2.149-7.221-2.149
					c-3.969,0-6.062,1.709-6.062,4.465c0,2.314,1.321,3.692,4.739,3.968l4.354,0.387c4.74,0.44,7.992,2.261,7.992,7.331
					C432.677,403.969,428.213,407,421.653,407z"/>
				<path fill="#FFFFFF" d="M442.984,371.779v-4.464h4.465v4.464H442.984z M443.204,406.67v-27.174h3.969v27.174H443.204z"/>
				<path fill="#FFFFFF" d="M470.488,407c-6.835,0-12.016-4.63-12.016-13.89c0-9.261,5.181-13.891,12.016-13.891
					c3.748,0,6.118,0.992,8.929,4.023l-2.699,2.535c-2.04-2.261-3.639-3.031-6.229-3.031c-2.646,0-4.851,1.048-6.283,3.087
					c-1.269,1.764-1.765,3.858-1.765,7.275s0.496,5.512,1.765,7.274c1.434,2.04,3.639,3.087,6.283,3.087
					c2.591,0,4.188-0.827,6.229-3.087l2.699,2.591C476.606,406.008,474.236,407,470.488,407z"/>
			</g>
		</g>
		
			<rect x="561.241" y="306.023" transform="matrix(0.8136 0.5815 -0.5815 0.8136 349.698 -248.8888)" fill="#FFFFFF" width="3.471" height="229.734"/>
		<g>
			<path fill="#FFFFFF" d="M867.393,492.599c12.456,0,24.857,0,37.314,0c0-2.534,0-5.126,0-7.661
				c-1.875-0.056-3.693-0.109-5.513-0.165c-2.148-0.056-3.803-1.765-3.803-3.913c0-7.222,0-14.387,0-21.606
				c0.274-2.313,1.268-4.134,3.031-5.622c0.33-0.274,0.605-0.439,0.937-0.661c2.48-1.487,4.905-2.205,7.827-2.095
				c1.543,0.056,2.921,0.331,4.354,0.882c3.142,1.269,5.069,4.079,5.125,7.496c0,7.221,0,14.441,0,21.661
				c0,2.095-1.709,3.858-3.804,3.914c-1.817,0.055-3.638,0.109-5.512,0.165c0,2.535,0,5.126,0,7.661c12.512,0,24.969,0,37.479,0
				c0-2.535,0-5.126,0-7.661c-1.929-0.055-3.857-0.11-5.843-0.165c-2.148-0.056-3.803-1.764-3.803-3.914c0-7.496,0-14.938,0-22.433
				c0-6.835-4.023-12.678-10.418-15.157c-6.613-2.536-12.842-2.978-19.731-1.435c-3.748,0.827-6.725,2.37-9.701,4.852
				c0-8.157,0-16.314,0-24.474c-9.314,0-18.63,0-27.943,0c0,2.536,0,5.017,0,7.553c1.873,0.109,3.691,0.165,5.566,0.274
				c2.148,0.11,3.803,1.874,3.803,4.023c0,15.599,0,31.197,0,46.795c0,2.095-1.708,3.858-3.803,3.914
				c-1.875,0.055-3.693,0.11-5.566,0.165C867.393,487.473,867.393,490.062,867.393,492.599z"/>
			<path fill="#FFFFFF" d="M1027.842,449.827c1.818,0,3.638,0,5.512,0c2.149,0,3.913,1.764,3.913,3.913c0,9.039,0,18.022,0,27.062
				c0,2.149-1.708,3.913-3.803,3.968c-1.875,0.057-3.693,0.11-5.513,0.166c0,2.591,0,5.126,0,7.717c12.457,0,24.97,0,37.48,0
				c0-2.591,0-5.126,0-7.717c-1.931-0.056-3.804-0.109-5.679-0.166c-2.148-0.055-3.856-1.817-3.856-3.912c0-12.897,0-25.74,0-38.639
				c-9.315,0-18.631,0-27.945,0C1027.842,444.701,1027.842,447.291,1027.842,449.827z"/>
			<path fill="#FFFFFF" d="M693.936,484.056c-3.031,0.109-6.008,0.275-9.039,0.387c0,2.699,0,5.456,0,8.156
				c14.606,0,29.268,0,43.874,0c0-2.7,0-5.457,0-8.156c-3.031-0.11-6.063-0.276-9.04-0.387c-1.929-0.109-3.417-1.653-3.417-3.583
				c0-15.983,0-32.022,0-48.008c5.678,0,11.3,0,16.978,0c2.038,0,3.691,1.6,3.747,3.583c0.11,2.756,0.222,5.456,0.387,8.212
				c3.526,0,7,0,10.526,0c0-7.661,0-15.321,0-22.983c-27.338,0-54.731,0-82.069,0c0,7.661,0,15.322,0,22.983c3.526,0,7,0,10.526,0
				c0.11-2.756,0.275-5.456,0.387-8.212c0.056-2.04,1.764-3.583,3.747-3.583c5.622,0,11.301,0,16.922,0c0,15.984,0,32.023,0,48.008
				C697.408,482.401,695.865,483.945,693.936,484.056z"/>
			<path fill="#FFFFFF" d="M1168.338,455.725c0.165,1.488,0.274,3.031,0.439,4.521c3.032,0,6.063,0,9.15,0
				c0-5.677,0-11.354,0-17.031c-7.496-1.543-13.945-2.37-21.606-2.591c-4.63-0.165-8.544,0.056-13.118,0.771
				c-2.756,0.387-5.016,1.104-7.552,2.315c-1.929,0.938-3.472,1.984-5.07,3.417c-5.016,4.244-5.677,11.74-1.487,16.756
				c1.047,1.269,2.148,2.149,3.583,2.922c5.346,2.261,9.976,3.913,15.543,5.513c3.526,1.047,6.559,1.983,10.031,3.307
				c1.93,0.938,2.812,3.197,1.873,5.182c-0.33,0.717-0.825,1.269-1.487,1.708c-1.269,0.771-2.425,1.269-3.858,1.653
				c-4.905,1.158-9.369,0.992-14.165-0.605c-2.535-0.826-4.134-2.977-4.299-5.678c-0.11-1.652-0.221-3.307-0.276-4.96
				c-2.921,0-5.842,0-8.708,0c0,5.621,0,11.243,0,16.865c8.874,2.756,16.757,3.804,26.07,3.528
				c6.339-0.166,11.687-1.488,17.418-4.135c1.929-0.938,3.417-1.983,4.905-3.527c4.63-3.969,5.126-10.969,1.156-15.599
				c-0.937-1.103-1.929-1.874-3.195-2.536c-2.48-1.268-4.63-2.148-7.276-3.03c-6.89-2.149-12.677-3.913-19.565-6.062
				c-2.096-0.938-3.032-3.361-2.096-5.457c0.496-1.103,1.378-1.874,2.535-2.26c5.732-2.039,11.244-2.149,17.032-0.221
				C1166.629,451.26,1168.116,453.244,1168.338,455.725z"/>
			<path fill="#FFFFFF" d="M1036.77,433.401c0.11,0.109,0.221,0.221,0.387,0.386c5.512,5.071,14.109,4.851,19.346-0.551
				c2.592-2.701,2.646-6.891,0.11-9.592c-5.181-5.565-13.89-5.842-19.456-0.66c-0.056,0-0.056,0-0.056,0.055
				C1034.124,425.796,1033.96,430.426,1036.77,433.401z"/>
			<path fill="#FFFFFF" d="M947.59,449.827c0.056,0,0.109,0,0.109,0c1.984,0.109,3.693,0.165,5.677,0.274
				c2.041,0.165,3.584,1.819,3.584,3.858c0,8.929,0,17.913,0,26.843c0,2.149-1.709,3.857-3.804,3.913
				c-1.874,0.055-3.692,0.11-5.566,0.165c0,2.591,0,5.126,0,7.717c12.456,0,24.913,0,37.37,0c0-2.535,0-5.126,0-7.661
				c-1.931-0.056-3.804-0.109-5.679-0.165c-2.148-0.056-3.803-1.818-3.803-3.913c0-7.165,0-14.387,0-21.606
				c0-3.086,1.653-5.677,4.465-7c3.197-1.488,6.395-1.818,9.866-1.103c4.244,0.938,7.22,4.574,7.165,8.983
				c0,6.891,0,13.779,0,20.726c0,2.148-1.709,3.857-3.803,3.913c-1.874,0.056-3.693,0.109-5.567,0.166c0,2.59,0,5.126,0,7.716
				c12.512,0,24.969,0,37.48,0c0-2.535,0-5.126,0-7.661c-1.93-0.055-3.805-0.11-5.732-0.165c-2.148-0.056-3.803-1.819-3.803-3.914
				c0-7.386,0-14.716,0-22.103c-0.11-4.796-1.984-8.818-5.622-11.851c-10.969-8.103-25.3-8.047-36.158,0.165
				c0-1.599,0-3.196,0-4.795c-8.708,0-17.417,0-26.125,0C947.59,444.812,947.59,447.291,947.59,449.827z"/>
			<path fill="#FFFFFF" d="M856.314,461.567c3.252,0,6.448,0,9.646,0c0-5.679,0-11.354,0-17.032
				c-4.022-1.047-7.495-1.765-11.629-2.26c-9.48-1.213-17.692-0.826-27.062,1.322c-8.434,1.984-14.552,8.104-16.536,16.48
				c-1.378,5.952-1.102,11.409,0.938,17.252c2.425,6.89,7.495,11.74,14.551,13.834c7.882,2.37,15.047,2.866,23.148,1.654
				c4.631-1.049,8.323-2.812,11.961-5.788c3.97-3.196,6.009-7.552,6.009-12.622c-4.023,0-8.048,0-12.017,0
				c-0.221,3.583-2.039,6.504-5.07,8.378c-0.883,0.44-1.653,0.771-2.591,1.048c-3.913,1.322-7.771,1.047-11.465-0.827
				c-2.701-1.653-4.465-4.078-5.235-7.165c-1.599-6.229-1.379-11.905,0.605-17.969c1.047-3.252,3.362-5.566,6.614-6.559
				c4.851-1.545,9.479-1.214,14.055,0.937c1.984,0.938,3.308,2.646,3.748,4.851C856.314,458.646,856.369,459.969,856.314,461.567z"
				/>
			<path fill="#FFFFFF" d="M1111.566,461.567c3.252,0,6.448,0,9.7,0c0-5.679,0-11.354,0-17.032c-4.023-1.047-7.496-1.765-11.63-2.26
				c-9.48-1.213-17.748-0.826-27.062,1.322c-8.434,1.984-14.552,8.104-16.536,16.48c-1.377,5.952-1.102,11.409,0.938,17.252
				c2.425,6.89,7.496,11.74,14.496,13.834c7.882,2.37,15.047,2.866,23.205,1.654c4.63-1.049,8.321-2.812,11.96-5.788
				c3.914-3.196,6.008-7.552,6.008-12.622c-4.023,0-8.047,0-12.016,0c-0.221,3.583-2.039,6.504-5.07,8.378
				c-0.882,0.44-1.654,0.771-2.591,1.048c-3.913,1.322-7.771,1.047-11.465-0.827c-2.7-1.653-4.409-4.078-5.236-7.165
				c-1.598-6.229-1.433-11.905,0.606-17.969c1.048-3.252,3.361-5.566,6.613-6.559c4.852-1.545,9.48-1.214,14.056,0.937
				c1.983,0.938,3.308,2.646,3.748,4.851C1111.566,458.646,1111.62,459.969,1111.566,461.567z"/>
			<path fill="#FFFFFF" d="M791.109,491.331c-3.526,1.157-6.613,1.818-10.307,2.26c-9.315,0.992-17.417-0.386-25.852-4.354
				c-8.156-3.913-13.118-11.409-13.447-20.449c-0.883-7.109,1.268-13.448,6.173-18.63c2.756-2.866,5.622-4.795,9.37-6.283
				c11.52-4.63,22.929-4.685,34.504-0.275c11.465,4.409,17.526,16.701,14.109,28.496c-14.496,0-29.048,0-43.543,0
				c-0.387,4.63,1.983,8.818,6.229,10.804c4.63,2.204,9.205,2.646,14.109,1.268c4.521-1.268,7.606-5.016,7.938-9.646
				c4.795,0,9.646,0,14.439,0C803.897,482.512,798.716,488.795,791.109,491.331z M779.149,450.434
				c-1.103-0.275-2.039-0.44-3.142-0.552c-0.938-0.055-1.709-0.055-2.592,0c-6.394,0.606-11.243,5.788-11.465,12.236
				c8.709,0,17.418,0,26.126,0C788.242,456.552,784.605,451.756,779.149,450.434z"/>
		</g>
	</g>
</g>
</svg>
